<?xml version="1.0" encoding="UTF-8" standalone="no"?>
<!DOCTYPE svg PUBLIC "-//W3C//DTD SVG 1.1//EN" "http://www.w3.org/Graphics/SVG/1.1/DTD/svg11.dtd">
<svg width="1024" height="1024" viewBox="-50 -50 1148 1148" xmlns="http://www.w3.org/2000/svg">
	<g opacity="0.8">
		<polyline points="876,28 917,0 915,6 914,15 915,15 917,15 925,12 923,3 929,3 933,3 939,3 943,3 947,3 949,6 950,6 950,12 948,12 946,18 942,25 940,25 938,28 935,31 933,34 931,41 929,44 927,47 926,47 925,53 923,56 920,56 917,60 916,60 915,69 914,72 914,75 917,82 925,97 927,104 929,107 931,120 930,129 930,142 929,148 929,158 929,170 929,176 929,186 928,199 927,205 927,214 927,227 927,233 926,243 925,256 707,278 752,366 751,391 785,372 813,306 836,309 850,316 854,331 867,344 875,347 879,357 885,360 888,363 890,366 892,372 896,376 899,376 902,379 904,385 907,388 911,388 912,391 912,395 914,401 912,401 910,404 912,407 916,417 916,420 920,423 922,423 923,429 921,423 919,423 917,429 911,429 908,432 904,436 902,439 898,439 895,445 893,445 894,445 894,445 895,445 894,439 894,439 892,436 890,436 888,439 886,439 884,439 884,439 883,439 882,439 881,439 880,445 880,445 880,445 880,445 880,445 879,445 878,445 879,445 880,445 877,448 876,448 875,451 875,451 875,458 874,458 873,458 871,461 867,464 864,464 863,467 858,474 855,477 853,480 851,480 849,486 848,486 849,486 850,486 851,486 851,486 849,489 849,489 856,480 857,480 856,480 856,480 857,477 860,477 863,477 863,477 865,474 865,474 863,474 862,467 858,467 857,467 857,467 855,474 853,474 852,474 851,474 852,474 852,467 850,467 851,467 853,467 853,467 852,467 851,467 853,467 851,467 847,464 847,461 846,458 844,458 841,458 838,458 836,451 837,451 838,451 840,451 842,448 844,448 843,448 845,445 849,445 851,439 851,439 850,439 856,439 868,436 878,436 883,432 888,432 892,436 896,436 903,436 907,436 915,439 921,439 929,445 935,448 941,448 946,451 950,458 954,461 958,464 961,467 964,474 968,477 975,480 979,486 983,489 988,493 995,496 1000,505 1002,505 1003,512 1006,518 1007,521 1010,524 1013,530 1013,537 1013,540 1015,546 1018,549 1021,559 1021,565 1021,568 1023,578 1022,581 1023,587 1024,591 1022,597 1020,603 1019,606 1019,609 1019,619 1018,619 1019,625 1019,632 1019,635 1018,638 1015,641 1015,647 1013,654 1012,660 1010,663 1007,670 1005,676 1002,682 999,688 996,692 994,695 994,707 993,714 990,720 988,726 985,733 980,739 976,742 974,749 969,752 964,755 960,761 955,764 949,768 943,768 939,771 935,777 928,780 924,780 919,783 916,790 911,793 904,796 900,796 896,796 892,799 888,799 882,799 877,805 872,805 867,809 860,809 853,812 846,815 839,815 835,815 826,821 822,821 816,824 811,824 805,824 798,824 794,828 789,828 784,834 779,834 775,834 771,837 765,837 761,837 753,840 748,843 740,850 734,853 729,853 713,853 706,856 701,862 700,865 697,869 696,878 693,884 693,894 693,897 692,900 691,907 688,910 686,913 683,922 683,926 682,935 681,938 679,944 677,954 678,957 678,967 681,970 683,970 687,973 688,979 686,982 688,986 692,995 696,998 698,1008 696,1014 693,1017 687,1024 680,1024 673,1024 665,1017 660,1011 655,1011 652,1008 644,998 638,995 632,995 626,995 623,992 614,995 613,995 611,995 610,995 609,992 608,992 606,992 605,992 603,992 601,992 599,992 598,992 597,986 595,986 646,878 416,916 452,910 425,929 403,935 396,929 387,929 383,929 382,929 378,926 370,926 364,926 360,926 360,926 360,922 357,913 354,907 352,900 348,897 343,894 332,891 325,891 319,884 313,878 312,872 307,869 306,862 301,856 296,853 293,850 290,850 288,843 285,837 280,837 280,828 275,824 271,821 270,812 267,809 263,809 258,805 254,799 249,796 245,793 239,790 234,780 229,771 228,764 225,761 223,755 218,752 217,749 215,752 214,752 210,742 210,742 210,739 209,736 212,733 214,726 221,720 224,711 228,704 232,695 236,692 239,682 243,679 250,670 258,666 263,663 268,660 274,654 275,654 278,654 282,651 287,647 292,647 298,638 303,635 312,625 314,625 319,622 323,613 327,606 330,603 332,603 333,603 336,597 337,594 338,594 340,591 343,581 344,578 343,575 342,568 341,562 341,559 339,553 332,546 333,540 332,537 329,530 326,530 319,530 314,530 310,524 306,521 301,512 296,508 296,505 292,502 286,496 281,493 275,489 270,489 266,486 262,480 259,477 258,477 259,477 260,477 262,477 263,477 263,477 265,477 265,477 265,477 269,480 271,486 275,489 281,493 284,496 286,502 286,502 286,502 283,502 275,489 269,486 263,477 258,474 253,464 249,461 245,458 241,451 237,448 233,445 228,436 224,432 219,429 217,420 215,417 215,407 210,401 206,391 202,388 198,376 195,366 192,363 186,360 183,357 173,360 166,357 160,357 150,360 142,357 134,357 124,357 117,357 108,357 104,357 99,357 94,357 91,357 89,357 85,350 82,347 83,347 85,350 87,357 86,357 89,357 88,350 84,347 81,344 77,344 74,344 71,338 73,338 75,338 77,335 77,335 83,335 83,331 80,322 73,328 67,319 63,319 59,316 50,316 38,319 36,316 32,316 28,316 24,316 21,309 18,306 16,303 17,300 19,293 18,287 20,284 18,278 18,274 18,271 16,271 15,265 13,262 12,259 13,256 13,249 14,243 13,237 13,233 13,227 13,221 12,214 11,208 8,205 5,202 3,192 3,189 3,176 1,170 0,164 3,154 3,145 3,145 " stroke="red" stroke-width="4" fill="none" />
	</g>
</svg>
